<svg width="134" height="21" viewBox="0 0 134 21" fill="none" xmlns="http://www.w3.org/2000/svg">
<g id="KALORIZE">
<path d="M1.596 20.72C1.16667 20.72 0.793333 20.5613 0.476 20.244C0.158667 19.9267 0 19.5533 0 19.124V1.876C0 1.44667 0.158667 1.07333 0.476 0.755999C0.793333 0.438666 1.16667 0.28 1.596 0.28H3.192C3.62133 0.28 3.98533 0.438666 4.284 0.755999C4.60133 1.07333 4.76 1.44667 4.76 1.876V9.016C4.76 9.03467 4.76933 9.044 4.788 9.044C4.82533 9.044 4.844 9.03467 4.844 9.016L9.604 1.624C10.164 0.728 10.976 0.28 12.04 0.28H14.392C14.728 0.28 14.9707 0.429333 15.12 0.727999C15.2693 1.02667 15.2507 1.316 15.064 1.596L9.38 9.884C9.28667 10.0147 9.28667 10.1453 9.38 10.276L15.372 19.404C15.5587 19.684 15.568 19.9733 15.4 20.272C15.2507 20.5707 15.008 20.72 14.672 20.72H12.32C11.256 20.72 10.4533 20.272 9.912 19.376L4.844 11.144C4.844 11.1253 4.82533 11.116 4.788 11.116C4.76933 11.116 4.76 11.1253 4.76 11.144V19.124C4.76 19.5533 4.60133 19.9267 4.284 20.244C3.98533 20.5613 3.62133 20.72 3.192 20.72H1.596Z" fill="#F94917"/>
<path d="M25.9284 4.424L23.8844 12.46C23.8658 12.516 23.8751 12.572 23.9124 12.628C23.9684 12.6653 24.0244 12.684 24.0804 12.684H27.8324C27.8884 12.684 27.9351 12.6653 27.9724 12.628C28.0284 12.572 28.0471 12.516 28.0284 12.46L25.9844 4.424C25.9844 4.40533 25.9751 4.396 25.9564 4.396C25.9378 4.396 25.9284 4.40533 25.9284 4.424ZM18.4524 20.72C18.0604 20.72 17.7431 20.5613 17.5004 20.244C17.2764 19.9267 17.2298 19.5813 17.3604 19.208L23.0164 1.792C23.1658 1.344 23.4271 0.979999 23.8004 0.699999C24.1924 0.42 24.6218 0.28 25.0884 0.28H26.9364C27.4218 0.28 27.8604 0.42 28.2524 0.699999C28.6444 0.979999 28.9058 1.344 29.0364 1.792L34.6644 19.208C34.7951 19.5813 34.7391 19.9267 34.4964 20.244C34.2724 20.5613 33.9644 20.72 33.5724 20.72H31.6964C31.2298 20.72 30.8098 20.58 30.4364 20.3C30.0631 20.0013 29.8204 19.628 29.7084 19.18L29.0364 16.52C29.0178 16.3707 28.9244 16.296 28.7564 16.296H23.1564C23.0071 16.296 22.9138 16.3707 22.8764 16.52L22.2044 19.18C22.0924 19.628 21.8498 20.0013 21.4764 20.3C21.1031 20.58 20.6831 20.72 20.2164 20.72H18.4524Z" fill="#F94917"/>
<path d="M38.8382 20.72C38.4089 20.72 38.0355 20.5613 37.7182 20.244C37.4009 19.9267 37.2422 19.5533 37.2422 19.124V1.876C37.2422 1.44667 37.4009 1.07333 37.7182 0.755999C38.0355 0.438666 38.4089 0.28 38.8382 0.28H40.5742C41.0035 0.28 41.3675 0.438666 41.6662 0.755999C41.9835 1.07333 42.1422 1.44667 42.1422 1.876V16.548C42.1422 16.6973 42.2262 16.772 42.3942 16.772H49.1982C49.6275 16.772 50.0009 16.9307 50.3182 17.248C50.6355 17.5653 50.7942 17.9387 50.7942 18.368V19.124C50.7942 19.5533 50.6355 19.9267 50.3182 20.244C50.0009 20.5613 49.6275 20.72 49.1982 20.72H38.8382Z" fill="#F94917"/>
<path d="M65.9848 10.5C65.9848 6.11333 64.4168 3.92 61.2808 3.92C58.1448 3.92 56.5768 6.11333 56.5768 10.5C56.5768 14.8867 58.1448 17.08 61.2808 17.08C64.4168 17.08 65.9848 14.8867 65.9848 10.5ZM68.2808 18.228C66.5635 20.076 64.2302 21 61.2808 21C58.3315 21 55.9982 20.076 54.2808 18.228C52.5635 16.3613 51.7048 13.7853 51.7048 10.5C51.7048 7.21467 52.5635 4.648 54.2808 2.8C55.9982 0.933333 58.3315 0 61.2808 0C64.2302 0 66.5635 0.933333 68.2808 2.8C69.9982 4.648 70.8568 7.21467 70.8568 10.5C70.8568 13.7853 69.9982 16.3613 68.2808 18.228Z" fill="#F94917"/>
<path d="M78.5315 4.032V9.408C78.5315 9.576 78.6061 9.66 78.7555 9.66H80.0995C81.4061 9.66 82.4048 9.38933 83.0955 8.848C83.7861 8.288 84.1315 7.51333 84.1315 6.524C84.1315 4.58267 82.8528 3.612 80.2955 3.612C79.7168 3.612 79.2128 3.64933 78.7835 3.724C78.6155 3.76133 78.5315 3.864 78.5315 4.032ZM75.4515 20.72C75.0221 20.72 74.6488 20.5613 74.3315 20.244C74.0141 19.9267 73.8555 19.5533 73.8555 19.124V2.016C73.8555 1.54933 74.0048 1.148 74.3035 0.812C74.6208 0.475999 75.0035 0.289333 75.4515 0.252C77.1128 0.084 78.8208 0 80.5755 0C83.3755 0 85.4568 0.532 86.8195 1.596C88.2008 2.64133 88.8915 4.13467 88.8915 6.076C88.8915 7.32667 88.5275 8.456 87.7995 9.464C87.0715 10.4533 86.1195 11.1627 84.9435 11.592C84.9248 11.592 84.9155 11.6013 84.9155 11.62C84.9155 11.6573 84.9341 11.676 84.9715 11.676C85.8861 12.1987 86.6608 13.3 87.2955 14.98L88.8915 19.236C89.0221 19.5907 88.9755 19.9267 88.7515 20.244C88.5275 20.5613 88.2288 20.72 87.8555 20.72H86.1475C85.6621 20.72 85.2235 20.58 84.8315 20.3C84.4395 20.02 84.1688 19.656 84.0195 19.208L82.6195 15.176C82.3581 14.392 82.0408 13.86 81.6675 13.58C81.2941 13.3 80.7155 13.16 79.9315 13.16H78.7555C78.6061 13.16 78.5315 13.244 78.5315 13.412V19.124C78.5315 19.5533 78.3728 19.9267 78.0555 20.244C77.7381 20.5613 77.3648 20.72 76.9355 20.72H75.4515Z" fill="#F94917"/>
<path d="M94.1091 20.72C93.6798 20.72 93.3064 20.5613 92.9891 20.244C92.6904 19.9267 92.5411 19.5533 92.5411 19.124V1.876C92.5411 1.44667 92.6904 1.07333 92.9891 0.755999C93.3064 0.438666 93.6798 0.28 94.1091 0.28H96.1811C96.6104 0.28 96.9744 0.438666 97.2731 0.755999C97.5904 1.07333 97.7491 1.44667 97.7491 1.876V19.124C97.7491 19.5533 97.5904 19.9267 97.2731 20.244C96.9744 20.5613 96.6104 20.72 96.1811 20.72H94.1091Z" fill="#F94917"/>
<path d="M103.718 20.72C103.288 20.72 102.915 20.5613 102.598 20.244C102.299 19.9267 102.15 19.5533 102.15 19.124V18.48C102.15 17.3973 102.439 16.4267 103.018 15.568L110.718 4.2V4.172L110.746 4.144C110.746 4.12533 110.736 4.116 110.718 4.116H103.718C103.288 4.116 102.915 3.95733 102.598 3.64C102.299 3.32267 102.15 2.94933 102.15 2.52V1.876C102.15 1.44667 102.299 1.07333 102.598 0.755999C102.915 0.438666 103.288 0.28 103.718 0.28H114.75C115.179 0.28 115.543 0.438666 115.842 0.755999C116.159 1.07333 116.318 1.44667 116.318 1.876V2.52C116.318 3.60267 116.028 4.57333 115.45 5.432L107.75 16.8V16.828L107.722 16.856C107.722 16.8747 107.731 16.884 107.75 16.884H114.75C115.179 16.884 115.543 17.0427 115.842 17.36C116.159 17.6773 116.318 18.0507 116.318 18.48V19.124C116.318 19.5533 116.159 19.9267 115.842 20.244C115.543 20.5613 115.179 20.72 114.75 20.72H103.718Z" fill="#F94917"/>
<path d="M121.853 20.72C121.424 20.72 121.05 20.5613 120.733 20.244C120.434 19.9267 120.285 19.5533 120.285 19.124V1.876C120.285 1.44667 120.434 1.07333 120.733 0.755999C121.05 0.438666 121.424 0.28 121.853 0.28H131.765C132.194 0.28 132.559 0.438666 132.857 0.755999C133.174 1.07333 133.333 1.44667 133.333 1.876V2.52C133.333 2.94933 133.174 3.32267 132.857 3.64C132.559 3.95733 132.194 4.116 131.765 4.116H125.269C125.12 4.116 125.045 4.19067 125.045 4.34V8.036C125.045 8.204 125.12 8.288 125.269 8.288H131.205C131.634 8.288 131.998 8.44667 132.297 8.764C132.614 9.08133 132.773 9.45467 132.773 9.884V10.304C132.773 10.7333 132.614 11.1067 132.297 11.424C131.998 11.7413 131.634 11.9 131.205 11.9H125.269C125.12 11.9 125.045 11.9747 125.045 12.124V16.66C125.045 16.8093 125.12 16.884 125.269 16.884H131.765C132.194 16.884 132.559 17.0427 132.857 17.36C133.174 17.6773 133.333 18.0507 133.333 18.48V19.124C133.333 19.5533 133.174 19.9267 132.857 20.244C132.559 20.5613 132.194 20.72 131.765 20.72H121.853Z" fill="#F94917"/>
</g>
</svg>
