<svg width="70" height="32" viewBox="0 0 70 32" fill="none" xmlns="http://www.w3.org/2000/svg">
<g id="Logo">
<path id="Vector" d="M13.8116 31.7101C12.8134 31.3423 11.9839 30.6224 11.4792 29.686C10.9744 28.7495 10.8291 27.6609 11.0706 26.6248C12.6636 19.5969 12.6636 12.3016 11.0706 5.27374C10.8291 4.23766 10.9744 3.14907 11.4792 2.2126C11.9839 1.27614 12.8134 0.556303 13.8116 0.188427C15.8674 -0.532893 18.2116 0.873682 18.8248 3.43437C20.6992 11.6724 20.6992 20.2262 18.8248 28.4642C18.2116 31.0249 15.8674 32.4314 13.8116 31.7101Z" fill="#F94917"/>
<path id="Vector_2" d="M56.1884 31.7101C57.1866 31.3423 58.0161 30.6224 58.5208 29.686C59.0256 28.7495 59.1709 27.6609 58.9294 26.6248C57.3364 19.5969 57.3364 12.3016 58.9294 5.27374C59.1709 4.23766 59.0256 3.14907 58.5208 2.2126C58.0161 1.27614 57.1866 0.556303 56.1884 0.188427C54.1326 -0.532893 51.7884 0.873682 51.1752 3.43437C49.3008 11.6724 49.3008 20.2262 51.1752 28.4642C51.7884 31.0249 54.1326 32.4314 56.1884 31.7101Z" fill="#F94917"/>
<path id="Vector_3" d="M2.99177 23.7757C0.93601 23.0183 -0.218103 20.7822 0.0343594 18.6903C0.255168 16.8817 0.255168 15.053 0.0343594 13.2444C-0.218103 11.1165 0.93601 8.91646 2.99177 8.12301C5.01147 7.32955 7.53609 9.06072 7.89675 12.1985C8.2061 14.7015 8.2061 17.2332 7.89675 19.7363C7.50003 22.8379 5.01147 24.5691 2.99177 23.7757Z" fill="#F94917"/>
<path id="Vector_4" d="M67.0082 23.7757C69.064 23.0183 70.2181 20.7822 69.9656 18.6903C69.7448 16.8817 69.7448 15.053 69.9656 13.2444C70.2181 11.1165 69.064 8.91646 67.0082 8.12301C64.9885 7.32955 62.4639 9.06072 62.1032 12.1985C61.7939 14.7015 61.7939 17.2332 62.1032 19.7363C62.5 22.8379 64.9885 24.5691 67.0082 23.7757Z" fill="#F94917"/>
<path id="Vector_5" d="M22.4675 20.7931C22.0347 22.0194 22.8281 23.3899 24.3068 23.7505C31.3732 25.5337 38.7719 25.5337 45.8382 23.7505C47.2809 23.3899 48.0743 22.0194 47.6776 20.7931C47.4638 20.1967 47.0337 19.7025 46.4725 19.4085C45.9113 19.1146 45.26 19.0424 44.6481 19.2062C38.3625 20.7894 31.7825 20.7894 25.497 19.2062C24.885 19.0424 24.2338 19.1146 23.6726 19.4085C23.1114 19.7025 22.6812 20.1967 22.4675 20.7931Z" fill="#F94917"/>
</g>
</svg>
